<?xml version="1.0" encoding="UTF-8" standalone="no"?>
<svg width="68px" height="48px" viewBox="0 0 68 48" version="1.1" xmlns="http://www.w3.org/2000/svg" xmlns:xlink="http://www.w3.org/1999/xlink">
    <!-- Generator: Sketch 41 (35326) - http://www.bohemiancoding.com/sketch -->
    <title>bt_youtube_play</title>
    <desc>Created with Sketch.</desc>
    <defs>
        <polygon id="path-1" points="9.5 0 19 19 0 19"></polygon>
    </defs>
    <g id="Symbols" stroke="none" stroke-width="1" fill="none" fill-rule="evenodd">
        <g id="bt_youtube_play">
            <g id="Group">
                <path d="M0.286559865,11.9784725 C0.680581971,5.91522957 5.9274405,0.741174662 11.9937418,0.477301858 C11.9937418,0.477301858 17.6427511,1.53002611e-15 34.4285007,0 C51.2142504,0 56.0170412,0.459755534 56.0170412,0.459755534 C62.0827618,0.758124314 67.3780571,5.92013325 67.7174499,11.9754763 C67.7174499,11.9754763 68,11.6756902 68,23.7837934 C68,35.8918967 67.7033504,36.0255236 67.7033504,36.0255236 C67.3149007,42.0865595 62.0901292,47.2825501 56.013526,47.5599302 C56.013526,47.5599302 52.2807233,48 34.8538156,48 C17.4269078,48 11.9873677,47.5234299 11.9873677,47.5234299 C5.91921206,47.2343475 0.637563171,42.0870242 0.301389074,36.0231258 C0.301389074,36.0231258 9.43689571e-16,35.65937 0,23.7729133 C0,11.8864567 0.286559865,11.9784725 0.286559865,11.9784725 Z" id="Rectangle-12" fill="#CC181E"></path>
                <g id="Path-2" transform="translate(26.000000, 14.000000)">
                    <mask id="mask-2" fill="white">
                        <use xlink:href="#path-1"></use>
                    </mask>
                    <use id="Mask" fill="#FFFFFF" transform="translate(9.500000, 9.500000) rotate(90.000000) translate(-9.500000, -9.500000) " xlink:href="#path-1"></use>
                    <polygon fill-opacity="0.2" fill="#000000" mask="url(#mask-2)" points="0 0 16 11 22 11 5 1"></polygon>
                </g>
            </g>
        </g>
    </g>
</svg>