<?xml version="1.0" encoding="UTF-8" standalone="no"?>
<svg width="24px" height="24px" viewBox="0 0 24 24" version="1.1" xmlns="http://www.w3.org/2000/svg" xmlns:xlink="http://www.w3.org/1999/xlink">
    <!-- Generator: Sketch 41.1 (35376) - http://www.bohemiancoding.com/sketch -->
    <title>ico_social_google+</title>
    <desc>Created with Sketch.</desc>
    <defs></defs>
    <g id="Symbols" stroke="none" stroke-width="1" fill="none" fill-rule="evenodd">
        <g id="ico_social_google+" fill="#FFFFFF">
            <g id="Group" transform="translate(3.000000, 2.000000)">
                <path d="M11.1367742,12.3258065 C10.7729032,11.8374194 10.3309677,11.4174194 9.86129032,11.0316129 C9.40967742,10.6612903 8.84129032,10.3077419 8.5316129,9.79677419 C7.81548387,8.61483871 9.35870968,7.70516129 10.0264516,6.95806452 C11.5445161,5.26193548 11.143871,2.14645161 9.2116129,0.921290323 C9.69096774,0.921290323 10.3496774,1.04580645 10.803871,0.909032258 C11.3296774,0.750322581 11.876129,0.281290323 12.3529032,0.00258064516 C10.7006452,0.00258064516 9.0483871,-0.00322580645 7.39612903,0.00258064516 C5.85290323,0.00774193548 4.25354839,0.227096774 3.02645161,1.23806452 C1.63032258,2.3883871 0.883870968,4.27612903 1.45548387,6.04580645 C2.12064516,8.10451613 4.28387097,8.98451613 6.29354839,8.73806452 C6.18129032,9.16193548 5.99612903,9.49741935 6.05225806,9.9516129 C6.12193548,10.5148387 6.44129032,11.0309677 6.78129032,11.4716129 C4.94645161,11.5187097 2.75935484,11.8393548 1.31096774,13.0593548 C-0.0587096774,14.2135484 -0.472258065,16.3077419 0.747741935,17.716129 C2.00903226,19.1716129 4.34967742,19.4580645 6.15032258,19.3283871 C7.75032258,19.2129032 9.33677419,18.7109677 10.4954839,17.5593548 C11.8619355,16.2019355 12.356129,13.9619355 11.1367742,12.3258065 C10.9316129,12.0503226 11.3419355,12.6012903 11.1367742,12.3258065 Z M9.8683871,16.8354839 C8.77935484,18.6987097 5.72709677,18.5206452 4.03419355,17.7735484 C2.27548387,16.9980645 1.38387097,14.7148387 3.00387097,13.2819355 C3.71032258,12.656129 4.75225806,12.3793548 5.66451613,12.2522581 C6.1683871,12.1819355 6.72645161,12.12 7.23483871,12.1767742 C7.60193548,12.2174194 7.82387097,12.4264516 8.1316129,12.6445161 C9.46451613,13.5890323 10.8864516,15.0922581 9.8683871,16.8354839 C9.65612903,17.1993548 10.0825806,16.4683871 9.8683871,16.8354839 Z M6.65419355,8.09806452 C3.33548387,8.09806452 1.85419355,0.821290323 5.68903226,0.84 C7.56516129,0.849677419 8.41290323,2.92645161 8.69612903,4.48580645 C8.98580645,6.08387097 8.64322581,8.09806452 6.65419355,8.09806452 Z" id="Combined-Shape"></path>
                <polyline id="Fill-127" points="18.0645161 2.58064516 15.483871 2.58064516 15.483871 0 14.1935484 0 14.1935484 2.58064516 11.6129032 2.58064516 11.6129032 3.87096774 14.1935484 3.87096774 14.1935484 6.4516129 15.483871 6.4516129 15.483871 3.87096774 18.0645161 3.87096774 18.0645161 2.58064516"></polyline>
            </g>
        </g>
    </g>
</svg>
