<?xml version="1.0" encoding="UTF-8" standalone="no"?>
<svg width="24px" height="24px" viewBox="0 0 24 24" version="1.1" xmlns="http://www.w3.org/2000/svg" xmlns:xlink="http://www.w3.org/1999/xlink">
    <!-- Generator: Sketch 41 (35326) - http://www.bohemiancoding.com/sketch -->
    <title>ico_social_youtube</title>
    <desc>Created with Sketch.</desc>
    <defs></defs>
    <g id="Symbols" stroke="none" stroke-width="1" fill="none" fill-rule="evenodd">
        <g id="ico_social_youtube" fill="#FFFFFF">
            <path d="M21.8,8.03466667 C21.8,8.03466667 21.6046667,6.65666667 21.0053333,6.04933333 C20.2446667,5.25266667 19.392,5.24866667 19.0013333,5.20266667 C16.2026667,5 12.004,5 12.004,5 L11.9953333,5 C11.9953333,5 7.79733333,5 4.99866667,5.20266667 C4.608,5.24866667 3.75533333,5.25266667 2.99466667,6.04933333 C2.39533333,6.65666667 2.2,8.03466667 2.2,8.03466667 C2.2,8.03466667 2,9.65333333 2,11.2713333 L2,12.722 C2,14.3406667 2.2,15.9586667 2.2,15.9586667 C2.2,15.9586667 2.39533333,17.3373333 2.99466667,17.944 C3.75533333,18.7406667 4.75466667,18.7153333 5.2,18.7993333 C6.8,18.9526667 12,19 12,19 C12,19 16.2026667,18.9933333 19.0013333,18.7913333 C19.392,18.7446667 20.2446667,18.7406667 21.0053333,17.944 C21.6046667,17.3373333 21.8,15.9586667 21.8,15.9586667 C21.8,15.9586667 22,14.3406667 22,12.722 L22,11.2713333 C22,9.65333333 21.8,8.03466667 21.8,8.03466667 L21.8,8.03466667 Z M9.93533333,14.6273333 L9.934,9.008 L15.3386667,11.828 L9.93533333,14.6273333 L9.93533333,14.6273333 Z" id="Fill-11"></path>
        </g>
    </g>
</svg>
