<?xml version="1.0" encoding="UTF-8" standalone="no"?>
<svg width="24px" height="24px" viewBox="0 0 24 24" version="1.1" xmlns="http://www.w3.org/2000/svg" xmlns:xlink="http://www.w3.org/1999/xlink">
    <!-- Generator: Sketch 41 (35326) - http://www.bohemiancoding.com/sketch -->
    <title>ico_social_finger_down</title>
    <desc>Created with Sketch.</desc>
    <defs></defs>
    <g id="Symbols" stroke="none" stroke-width="1" fill="none" fill-rule="evenodd">
        <g id="ico_social_finger_down" fill="#fe9800">
            <g id="Group" transform="translate(12.500000, 12.000000) scale(-1, -1) translate(-12.500000, -12.000000) translate(6.000000, 5.000000)">
                <path d="M4.62120553,5.55052043 C4.23871296,5.91450007 4,6.42846326 4,6.99810135 L4,11.0018986 C4,12.1132936 4.89808055,13 6.00591905,13 L8.99408095,13 C10.1134452,13 11.2167587,12.132965 11.4841442,11.0634232 L12.5158558,6.93657684 C12.7821577,5.87136924 12.1057373,5 11.0026083,5 L7.66666667,5 L8.20015401,4.5998845 C8.64502668,4.26622999 9,3.54809015 9,2.9906311 L9,2 C9,0.887729645 8.1045695,0 7,0 L8,0 C7.44386482,0 6.82440715,0.409716651 6.60780239,0.915127754 L4.62120553,5.55052043 Z M0,7.50473881 C0,6.67369451 0.665797234,6 1.5,6 C2.32842712,6 3,6.66831553 3,7.50473881 L3,12.4952612 C3,13.3263055 2.33420277,14 1.5,14 C0.671572875,14 0,13.3316845 0,12.4952612 L0,7.50473881 Z" id="Combined-Shape"></path>
            </g>
        </g>
    </g>
</svg>
