<?xml version="1.0" encoding="UTF-8" standalone="no"?>
<svg width="32px" height="32px" viewBox="0 0 32 32" version="1.1" xmlns="http://www.w3.org/2000/svg" xmlns:xlink="http://www.w3.org/1999/xlink">
    <!-- Generator: Sketch 41 (35326) - http://www.bohemiancoding.com/sketch -->
    <title>ico_share_google</title>
    <desc>Created with Sketch.</desc>
    <defs></defs>
    <g id="Symbols" stroke="none" stroke-width="1" fill="none" fill-rule="evenodd">
        <g id="ico_share_google" fill="#bfbfbf">
            <path d="M16,31 C24.2842712,31 31,24.2842712 31,16 C31,7.71572875 24.2842712,1 16,1 C7.71572875,1 1,7.71572875 1,16 C1,24.2842712 7.71572875,31 16,31 Z M18.1367742,18.3258065 C17.7729032,17.8374194 17.3309677,17.4174194 16.8612903,17.0316129 C16.4096774,16.6612903 15.8412903,16.3077419 15.5316129,15.7967742 C14.8154839,14.6148387 16.3587097,13.7051613 17.0264516,12.9580645 C18.5445161,11.2619355 18.143871,8.14645161 16.2116129,6.92129032 C16.6909677,6.92129032 17.3496774,7.04580645 17.803871,6.90903226 C18.3296774,6.75032258 18.876129,6.28129032 19.3529032,6.00258065 C17.7006452,6.00258065 16.0483871,5.99677419 14.396129,6.00258065 C12.8529032,6.00774194 11.2535484,6.22709677 10.0264516,7.23806452 C8.63032258,8.3883871 7.88387097,10.276129 8.45548387,12.0458065 C9.12064516,14.1045161 11.283871,14.9845161 13.2935484,14.7380645 C13.1812903,15.1619355 12.996129,15.4974194 13.0522581,15.9516129 C13.1219355,16.5148387 13.4412903,17.0309677 13.7812903,17.4716129 C11.9464516,17.5187097 9.75935484,17.8393548 8.31096774,19.0593548 C6.94129032,20.2135484 6.52774194,22.3077419 7.74774194,23.716129 C9.00903226,25.1716129 11.3496774,25.4580645 13.1503226,25.3283871 C14.7503226,25.2129032 16.3367742,24.7109677 17.4954839,23.5593548 C18.8619355,22.2019355 19.356129,19.9619355 18.1367742,18.3258065 C17.9316129,18.0503226 18.3419355,18.6012903 18.1367742,18.3258065 Z M25.0645161,8.58064516 L22.483871,8.58064516 L22.483871,6 L21.1935484,6 L21.1935484,8.58064516 L18.6129032,8.58064516 L18.6129032,9.87096774 L21.1935484,9.87096774 L21.1935484,12.4516129 L22.483871,12.4516129 L22.483871,9.87096774 L25.0645161,9.87096774 L25.0645161,8.58064516 Z M16.8683871,22.8354839 C15.7793548,24.6987097 12.7270968,24.5206452 11.0341935,23.7735484 C9.27548387,22.9980645 8.38387097,20.7148387 10.003871,19.2819355 C10.7103226,18.656129 11.7522581,18.3793548 12.6645161,18.2522581 C13.1683871,18.1819355 13.7264516,18.12 14.2348387,18.1767742 C14.6019355,18.2174194 14.823871,18.4264516 15.1316129,18.6445161 C16.4645161,19.5890323 17.8864516,21.0922581 16.8683871,22.8354839 C16.656129,23.1993548 17.0825806,22.4683871 16.8683871,22.8354839 Z M13.6541935,14.0980645 C10.3354839,14.0980645 8.85419355,6.82129032 12.6890323,6.84 C14.5651613,6.84967742 15.4129032,8.92645161 15.696129,10.4858065 C15.9858065,12.083871 15.6432258,14.0980645 13.6541935,14.0980645 Z" id="Combined-Shape"></path>
        </g>
    </g>
</svg>
