<?xml version="1.0" encoding="UTF-8" standalone="no"?>
<svg width="24px" height="24px" viewBox="0 0 24 24" version="1.1" xmlns="http://www.w3.org/2000/svg" xmlns:xlink="http://www.w3.org/1999/xlink">
    <!-- Generator: Sketch 41 (35326) - http://www.bohemiancoding.com/sketch -->
    <title>ico_info</title>
    <desc>Created with Sketch.</desc>
    <defs></defs>
    <g id="Symbols" stroke="none" stroke-width="1" fill="none" fill-rule="evenodd">
        <g id="ico_info" fill="#42c7fa">
            <g id="Group-2" transform="translate(3.000000, 3.000000)">
                <path d="M9,17.5 C13.6944204,17.5 17.5,13.6944204 17.5,9 C17.5,4.30557963 13.6944204,0.5 9,0.5 C4.30557963,0.5 0.5,4.30557963 0.5,9 C0.5,13.6944204 4.30557963,17.5 9,17.5 Z M9,16.5 C4.85786438,16.5 1.5,13.1421356 1.5,9 C1.5,4.85786438 4.85786438,1.5 9,1.5 C13.1421356,1.5 16.5,4.85786438 16.5,9 C16.5,13.1421356 13.1421356,16.5 9,16.5 Z" id="Oval-5"></path>
                <path d="M9.161,5.866 C8.84366508,5.866 8.57066781,5.76100105 8.342,5.551 C8.11333219,5.34099895 7.999,5.0726683 7.999,4.746 C7.999,4.4193317 8.11333219,4.15333436 8.342,3.948 C8.57066781,3.74266564 8.84366508,3.64 9.161,3.64 C9.4876683,3.64 9.76299888,3.74266564 9.987,3.948 C10.2110011,4.15333436 10.323,4.4193317 10.323,4.746 C10.323,5.0726683 10.2110011,5.34099895 9.987,5.551 C9.76299888,5.76100105 9.4876683,5.866 9.161,5.866 Z M10.953,13.384 L10.953,14 L7.369,14 L7.369,13.384 L8.223,13.216 C8.23233338,12.8613316 8.237,12.488002 8.237,12.096 L8.237,10.36 C8.237,9.97733142 8.23233338,9.65766795 8.223,9.401 C8.21366662,9.14433205 8.20433338,8.8760014 8.195,8.596 L7.257,8.47 L7.257,7.938 L9.973,7.028 L10.183,7.168 L10.141,9.17 L10.141,12.103 C10.141,12.4996686 10.1456666,12.8706649 10.155,13.216 L10.953,13.384 Z" id="i"></path>
            </g>
        </g>
    </g>
</svg>
