<?xml version="1.0" encoding="UTF-8" standalone="no"?>
<svg width="32px" height="32px" viewBox="0 0 32 32" version="1.1" xmlns="http://www.w3.org/2000/svg" xmlns:xlink="http://www.w3.org/1999/xlink">
    <!-- Generator: Sketch 41 (35326) - http://www.bohemiancoding.com/sketch -->
    <title>ico_share_fb</title>
    <desc>Created with Sketch.</desc>
    <defs></defs>
    <g id="Symbols" stroke="none" stroke-width="1" fill="none" fill-rule="evenodd">
        <g id="ico_share_fb" fill="#bfbfbf">
            <path d="M16,31 C24.2842712,31 31,24.2842712 31,16 C31,7.71572875 24.2842712,1 16,1 C7.71572875,1 1,7.71572875 1,16 C1,24.2842712 7.71572875,31 16,31 Z M17.6666667,12.6666667 L17.6666667,10.682 C17.6666667,9.78666667 17.8646667,9.33333333 19.2553333,9.33333333 L21,9.33333333 L21,6 L18.3333333,6 C15,6 13.6666667,8.224 13.6666667,10.6666667 L13.6666667,12.6666667 L11,12.6666667 L11,16 L13.6666667,16 L13.6666667,26 L17.6666667,26 L17.6666667,16 L20.604,16 L21,12.6666667 L17.6666667,12.6666667 Z" id="Combined-Shape"></path>
        </g>
    </g>
</svg>
