<?xml version="1.0" encoding="UTF-8" standalone="no"?>
<svg width="24px" height="24px" viewBox="0 0 24 24" version="1.1" xmlns="http://www.w3.org/2000/svg" xmlns:xlink="http://www.w3.org/1999/xlink">
    <!-- Generator: Sketch 41 (35326) - http://www.bohemiancoding.com/sketch -->
    <title>ico_calendar</title>
    <desc>Created with Sketch.</desc>
    <defs>
        <rect id="path-1" x="2" y="0" width="4" height="6" rx="2"></rect>
        <mask id="mask-2" maskContentUnits="userSpaceOnUse" maskUnits="objectBoundingBox" x="0" y="0" width="4" height="6" fill="white">
            <use xlink:href="#path-1"></use>
        </mask>
        <rect id="path-3" x="9" y="0" width="4" height="6" rx="2"></rect>
        <mask id="mask-4" maskContentUnits="userSpaceOnUse" maskUnits="objectBoundingBox" x="0" y="0" width="4" height="6" fill="white">
            <use xlink:href="#path-3"></use>
        </mask>
    </defs>
    <g id="Symbols" stroke="none" stroke-width="1" fill="none" fill-rule="evenodd">
        <g id="ico_calendar">
            <g id="Group-3" transform="translate(5.000000, 4.000000)">
                <rect id="Rectangle" fill="#FFFFFF" x="0" y="2" width="15" height="4" rx="2"></rect>
                <path d="M1,5.99201702 L1,14.007983 C1,14.5510712 1.44760752,15 1.99188419,15 L13.0081158,15 C13.5549799,15 14,14.5551971 14,14.007983 L14,5.99201702 C14,5.44892877 13.5523925,5 13.0081158,5 L1.99188419,5 C1.4450201,5 1,5.44480292 1,5.99201702 Z M0,5.99201702 C0,4.8918564 0.893397331,4 1.99188419,4 L13.0081158,4 C14.1082031,4 15,4.90017617 15,5.99201702 L15,14.007983 C15,15.1081436 14.1066027,16 13.0081158,16 L1.99188419,16 C0.891796927,16 0,15.0998238 0,14.007983 L0,5.99201702 Z" id="Rectangle-3" fill="#FFFFFF"></path>
                <use id="Rectangle-4" stroke="#FFFFFF" mask="url(#mask-2)" stroke-width="2" fill="#42c7fa" xlink:href="#path-1"></use>
                <use id="Rectangle-4-Copy" stroke="#FFFFFF" mask="url(#mask-4)" stroke-width="2" fill="#42c7fa" xlink:href="#path-3"></use>
            </g>
        </g>
    </g>
</svg>
