<?xml version="1.0" encoding="UTF-8" standalone="no"?>
<svg width="24px" height="24px" viewBox="0 0 24 24" version="1.1" xmlns="http://www.w3.org/2000/svg" xmlns:xlink="http://www.w3.org/1999/xlink">
    <!-- Generator: Sketch 41 (35326) - http://www.bohemiancoding.com/sketch -->
    <title>ico_social_twitter</title>
    <desc>Created with Sketch.</desc>
    <defs></defs>
    <g id="Symbols" stroke="none" stroke-width="1" fill="none" fill-rule="evenodd">
        <g id="ico_social_twitter" fill="#FFFFFF">
            <path d="M22,5.896 C21.2991117,6.21666667 20.5505527,6.43333333 19.7614091,6.53333333 C20.5666576,6.03333333 21.1863769,5.24133333 21.4762664,4.3 C20.7231979,4.76266667 19.8902489,5.1 19.0006103,5.27933333 C18.2874822,4.49133333 17.2728691,4 16.1538957,4 C13.9996949,4 12.2564928,5.808 12.2564928,8.03733333 C12.2564928,8.354 12.2887028,8.66266667 12.3569879,8.95866667 C9.1160236,8.792 6.24096426,7.18333333 4.32060758,4.73733333 C3.98626839,5.33333333 3.79300875,6.02933333 3.79300875,6.76666667 C3.79300875,8.16666667 4.48552248,9.404 5.53234556,10.1293333 C4.88814674,10.1126667 4.28453245,9.92933333 3.76079881,9.62466667 L3.76079881,9.67533333 C3.76079881,11.6333333 5.10588594,13.2626667 6.88902828,13.6333333 C6.56306367,13.7246667 6.21712891,13.7746667 5.86281956,13.7746667 C5.61287041,13.7746667 5.36743066,13.75 5.1297213,13.7 C5.62511019,15.304 7.06682715,16.4706667 8.77395402,16.504 C7.44110667,17.5873333 5.75781515,18.2333333 3.9302231,18.2333333 C3.61585407,18.2333333 3.30599444,18.2126667 3,18.1753333 C4.71936665,19.3333333 6.7685631,20 8.96656947,20 C16.1455211,20 20.0674035,13.846 20.0674035,8.508 C20.0674035,8.33333333 20.0628941,8.158 20.0551638,7.98733333 C20.8159626,7.41666667 21.4762664,6.70866667 22,5.896" id="Fill-122"></path>
        </g>
    </g>
</svg>
