<?xml version="1.0" encoding="UTF-8" standalone="no"?>
<svg width="32px" height="32px" viewBox="0 0 32 32" version="1.1" xmlns="http://www.w3.org/2000/svg" xmlns:xlink="http://www.w3.org/1999/xlink">
    <!-- Generator: Sketch 41 (35326) - http://www.bohemiancoding.com/sketch -->
    <title>ico_share_email</title>
    <desc>Created with Sketch.</desc>
    <defs></defs>
    <g id="Symbols" stroke="none" stroke-width="1" fill="none" fill-rule="evenodd">
        <g id="ico_share_email" fill="#bfbfbf">
            <path d="M7,11.6842145 L7,20.3162493 L11.5871053,16 L7,11.6842145 Z M7.08914164,21.718532 C7.1949615,21.8872405 7.38447583,22 7.6,22 L24.4,22 C24.6155242,22 24.8050385,21.8872405 24.9108584,21.718532 L19.6234842,16.7433628 L18.5171089,17.7838449 C17.8447593,18.4164941 16.9508945,18.765016 16,18.765016 C15.0491055,18.765016 14.1552407,18.4164941 13.4828911,17.7838449 L12.3765158,16.7433628 L7.08914164,21.718532 Z M25,20.3162493 L25,11.6842145 L20.4128947,16 L25,20.3162493 Z M24.9108673,10.2814822 C24.8050491,10.1127659 24.6155302,10 24.4,10 L7.6,10 C7.38446978,10 7.19495087,10.1127659 7.08913274,10.2814822 L14.2723016,17.0410469 C15.224997,17.9374882 16.775003,17.9374882 17.7276984,17.0410469 L24.9108673,10.2814822 Z M16,31 C24.2842712,31 31,24.2842712 31,16 C31,7.71572875 24.2842712,1 16,1 C7.71572875,1 1,7.71572875 1,16 C1,24.2842712 7.71572875,31 16,31 Z M24.2352941,23 L7.76470588,23 C6.79176471,23 6,22.2234615 6,21.2692308 L6,10.7307692 C6,9.77653846 6.79176471,9 7.76470588,9 L24.2352941,9 C25.2082353,9 26,9.77653846 26,10.7307692 L26,21.2692308 C26,22.2234615 25.2082353,23 24.2352941,23 Z" id="Combined-Shape"></path>
        </g>
    </g>
</svg>
