<?xml version="1.0" encoding="UTF-8" standalone="no"?>
<svg width="24px" height="24px" viewBox="0 0 24 24" version="1.1" xmlns="http://www.w3.org/2000/svg" xmlns:xlink="http://www.w3.org/1999/xlink">
    <!-- Generator: Sketch 41 (35326) - http://www.bohemiancoding.com/sketch -->
    <title>ico_chart_description</title>
    <desc>Created with Sketch.</desc>
    <defs></defs>
    <g id="Symbols" stroke="none" stroke-width="1" fill="none" fill-rule="evenodd">
        <g id="ico_chart_description" fill="#42c7fa">
            <path d="M10.0224215,15 L9,15 L9,8 L11,8 L11,12.3369209 C10.4601588,13.1035229 10.1112509,14.0142643 10.0224215,15 Z M12,11.2571621 L12,10 L14,10 L14,10.2070325 C13.2576107,10.4170071 12.5790321,10.7789623 12,11.2571621 Z M15,10.0224215 L15,6 L17,6 L17,10.2070325 C16.5231682,10.0721672 16.0200119,10 15.5,10 C15.3314552,10 15.164681,10.0075813 15,10.0224215 Z M10.0224215,16 C10.0533678,16.3434098 10.1158793,16.6777176 10.2070325,17 L5.99188419,17 C4.89179693,17 4,16.1064574 4,14.9972399 L4,6.00276013 C4,4.89666625 4.89339733,4 5.99188419,4 L17.0081158,4 C18.1082031,4 19,4.89354265 19,6.00276013 L19,11.2571621 C18.6928923,11.0035339 18.3577817,10.7826058 18,10.5997096 L18,6.00276013 C18,5.4459309 17.5560124,5 17.0081158,5 L5.99188419,5 C5.44622706,5 5,5.44841465 5,6.00276013 L5,14.9972399 C5,15.5540691 5.4439876,16 5.99188419,16 L10.0224215,16 Z M6,12 L6,15 L8,15 L8,12 L6,12 Z M15.5,20 C17.9852814,20 20,17.9852814 20,15.5 C20,13.0147186 17.9852814,11 15.5,11 C13.0147186,11 11,13.0147186 11,15.5 C11,17.9852814 13.0147186,20 15.5,20 Z M15,15 L16,15 L16,18 L15,18 L15,15 Z M15,13 L16,13 L16,14 L15,14 L15,13 Z" id="Combined-Shape"></path>
        </g>
    </g>
</svg>
