<?xml version="1.0" encoding="UTF-8" standalone="no"?>
<svg width="24px" height="24px" viewBox="0 0 24 24" version="1.1" xmlns="http://www.w3.org/2000/svg" xmlns:xlink="http://www.w3.org/1999/xlink">
    <!-- Generator: Sketch 41 (35326) - http://www.bohemiancoding.com/sketch -->
    <title>ico_social_linkedin</title>
    <desc>Created with Sketch.</desc>
    <defs></defs>
    <g id="Symbols" stroke="none" stroke-width="1" fill="none" fill-rule="evenodd">
        <g id="ico_social_linkedin" fill="#FFFFFF">
            <path d="M18.8165699,4 L5.18035309,4 C4.52925113,4 4,4.51630769 4,5.15384615 L4,18.8455385 C4,19.4824615 4.52925113,20 5.18035309,20 L18.8165699,20 C19.4689027,20 20,19.4824615 20,18.8455385 L20,5.15384615 C20,4.51630769 19.4689027,4 18.8165699,4 L18.8165699,4 Z M6.46163314,10.1538462 L8.92326628,10.1538462 L8.92326628,17.5384615 L6.46163314,17.5384615 L6.46163314,10.1538462 Z M7.69306512,9.16923077 C6.87518751,9.16923077 6.21546983,8.50769231 6.21546983,7.69230769 C6.21546983,6.87692308 6.87518751,6.21538462 7.69306512,6.21538462 C8.50786569,6.21538462 9.16942959,6.87692308 9.16942959,7.69230769 C9.16942959,8.50769231 8.50786569,9.16923077 7.69306512,9.16923077 L7.69306512,9.16923077 Z M17.5389823,17.5384615 L15.0773491,17.5384615 L15.0773491,13.8461538 C15.0773491,12.8461538 14.8078003,11.896 13.8465326,11.896 C12.8846494,11.896 12.615716,12.8609231 12.615716,13.8572308 L12.615716,17.5384615 L10.1540828,17.5384615 L10.1540828,10.1538462 L12.615716,10.1538462 L12.615716,11.0418462 L12.7387976,11.0418462 C13.0551175,10.4418462 13.8465326,9.93169231 14.7874918,9.93169231 C17.0583484,9.93169231 17.5389823,11.4233846 17.5389823,13.2307692 L17.5389823,17.5384615 L17.5389823,17.5384615 Z" id="Fill-3"></path>
        </g>
    </g>
</svg>
