<?xml version="1.0" encoding="UTF-8" standalone="no"?>
<svg width="32px" height="32px" viewBox="0 0 32 32" version="1.1" xmlns="http://www.w3.org/2000/svg" xmlns:xlink="http://www.w3.org/1999/xlink">
    <!-- Generator: Sketch 41 (35326) - http://www.bohemiancoding.com/sketch -->
    <title>ico_share_linkedin</title>
    <desc>Created with Sketch.</desc>
    <defs></defs>
    <g id="Symbols" stroke="none" stroke-width="1" fill="none" fill-rule="evenodd">
        <g id="ico_share_linkedin" fill="#bfbfbf">
            <path d="M16,31 C24.2842712,31 31,24.2842712 31,16 C31,7.71572875 24.2842712,1 16,1 C7.71572875,1 1,7.71572875 1,16 C1,24.2842712 7.71572875,31 16,31 Z M23.6686411,7 L8.32789723,7 C7.59540752,7 7,7.58086849 7,8.29812685 L7,23.7018731 C7,24.4184392 7.59540752,25.0006923 8.32789723,25.0006923 L23.6686411,25.0006923 C24.4025155,25.0006923 25,24.4184392 25,23.7018731 L25,8.29812685 C25,7.58086849 24.4025155,7 23.6686411,7 Z M22.2313551,22.2313551 L19.4620178,22.2313551 L19.4620178,18.0773491 C19.4620178,16.9523059 19.1587753,15.8833417 18.0773491,15.8833417 C16.9952306,15.8833417 16.6926805,16.9689219 16.6926805,18.0898111 L16.6926805,22.2313551 L13.9233432,22.2313551 L13.9233432,13.9233432 L16.6926805,13.9233432 L16.6926805,14.9223816 L16.8311474,14.9223816 C17.1870072,14.2473557 18.0773491,13.6734105 19.1359283,13.6734105 C21.6906419,13.6734105 22.2313551,15.3516289 22.2313551,17.3850148 L22.2313551,22.2313551 Z M11.1546983,12.8156083 C10.2345859,12.8156083 9.49240355,12.0713489 9.49240355,11.1540059 C9.49240355,10.2366629 10.2345859,9.49240355 11.1546983,9.49240355 C12.0713489,9.49240355 12.8156083,10.2366629 12.8156083,11.1540059 C12.8156083,12.0713489 12.0713489,12.8156083 11.1546983,12.8156083 Z M9.76933728,13.9233432 L12.5386746,13.9233432 L12.5386746,22.2313551 L9.76933728,22.2313551 L9.76933728,13.9233432 Z" id="Combined-Shape"></path>
        </g>
    </g>
</svg>
