<?xml version="1.0" encoding="UTF-8" standalone="no"?>
<svg width="24px" height="24px" viewBox="0 0 24 24" version="1.1" xmlns="http://www.w3.org/2000/svg" xmlns:xlink="http://www.w3.org/1999/xlink">
    <!-- Generator: Sketch 41 (35326) - http://www.bohemiancoding.com/sketch -->
    <title>ico_social_finger_up</title>
    <desc>Created with Sketch.</desc>
    <defs></defs>
    <g id="Symbols" stroke="none" stroke-width="1" fill="none" fill-rule="evenodd">
        <g id="ico_social_finger_up" fill="#16a0e8">
            <path d="M10.6212055,10.5505204 C10.238713,10.9145001 10,11.4284633 10,11.9981014 L10,16.0018986 C10,17.1132936 10.8980806,18 12.0059191,18 L14.9940809,18 C16.1134452,18 17.2167587,17.132965 17.4841442,16.0634232 L18.5158558,11.9365768 C18.7821577,10.8713692 18.1057373,10 17.0026083,10 L13.6666667,10 L14.200154,9.5998845 C14.6450267,9.26622999 15,8.54809015 15,7.9906311 L15,7 C15,5.88772964 14.1045695,5 13,5 L14,5 C13.4438648,5 12.8244071,5.40971665 12.6078024,5.91512775 L10.6212055,10.5505204 Z M6,12.5047388 C6,11.6736945 6.66579723,11 7.5,11 C8.32842712,11 9,11.6683155 9,12.5047388 L9,17.4952612 C9,18.3263055 8.33420277,19 7.5,19 C6.67157288,19 6,18.3316845 6,17.4952612 L6,12.5047388 Z" id="Combined-Shape"></path>
        </g>
    </g>
</svg>
