<?xml version="1.0" encoding="UTF-8" standalone="no"?>
<svg width="32px" height="32px" viewBox="0 0 32 32" version="1.1" xmlns="http://www.w3.org/2000/svg" xmlns:xlink="http://www.w3.org/1999/xlink">
    <!-- Generator: Sketch 41 (35326) - http://www.bohemiancoding.com/sketch -->
    <title>ico_share_tweet</title>
    <desc>Created with Sketch.</desc>
    <defs></defs>
    <g id="Symbols" stroke="none" stroke-width="1" fill="none" fill-rule="evenodd">
        <g id="ico_share_tweet" fill="#bfbfbf">
            <path d="M16,31 C24.2842712,31 31,24.2842712 31,16 C31,7.71572875 24.2842712,1 16,1 C7.71572875,1 1,7.71572875 1,16 C1,24.2842712 7.71572875,31 16,31 Z M26,9.92852784 C25.2622228,10.2546959 24.474266,10.4750797 23.6435885,10.5767953 C24.4912186,10.0682173 25.1435546,9.26262969 25.4487014,8.30514681 C24.6559978,8.775751 23.7792093,9.11887163 22.8427477,9.30128162 C22.0920865,8.49976266 21.0240727,8 19.846206,8 C17.5786262,8 15.7436767,9.83901811 15.7436767,12.106598 C15.7436767,12.4286974 15.7775819,12.7426595 15.8494609,13.0437377 C12.4379196,12.8742117 9.41154133,11.2379467 7.39011324,8.74998305 C7.03817726,9.35620804 6.83474605,10.0641486 6.83474605,10.8141317 C6.83474605,12.2381501 7.56370787,13.4967112 8.66562691,14.2344884 C7.98752289,14.2175358 7.35213942,14.0310572 6.80084085,13.7211636 L6.80084085,13.7726995 C6.80084085,15.764291 8.21672205,17.4215773 10.093714,17.7986031 C9.75059334,17.8915034 9.38645148,17.9423612 9.01349427,17.9423612 C8.75038991,17.9423612 8.49203228,17.9172713 8.24181189,17.8664135 C8.76327389,19.4979318 10.2808707,20.6846138 12.0778463,20.718519 C10.6748491,21.8204381 8.90296331,22.4775209 6.97918221,22.4775209 C6.64826744,22.4775209 6.32209941,22.4564996 6,22.4185258 C7.80985963,23.5963925 9.96690852,24.2744965 12.2805994,24.2744965 C19.8373907,24.2744965 23.9656879,18.0149183 23.9656879,12.5853394 C23.9656879,12.4076761 23.9609412,12.2293348 23.952804,12.0557402 C24.7536448,11.4752831 25.4487014,10.7551366 26,9.92852784 Z" id="Combined-Shape"></path>
        </g>
    </g>
</svg>
