<?xml version="1.0" encoding="UTF-8" standalone="no"?>
<svg width="132px" height="24px" viewBox="0 0 132 24" version="1.1" xmlns="http://www.w3.org/2000/svg" xmlns:xlink="http://www.w3.org/1999/xlink">
    <!-- Generator: Sketch 41 (35326) - http://www.bohemiancoding.com/sketch -->
    <title>logo</title>
    <desc>Created with Sketch.</desc>
    <defs>
        <polygon id="path-1" points="0 23.5923907 131.244837 23.5923907 131.244837 -0.00016744186 0 -0.00016744186"></polygon>
    </defs>
    <g id="Symbols" stroke="none" stroke-width="1" fill="none" fill-rule="evenodd">
        <g id="logo">
            <g>
                <path d="M37.1077953,18.3430326 C37.5788651,18.3430326 37.9918884,18.2994977 38.3418419,18.2146605 C38.6906791,18.1292651 39.0244465,18.0114977 39.342586,17.8602419 L39.342586,15.812986 L37.9321674,15.812986 C37.7976558,15.812986 37.6899349,15.7755907 37.6134698,15.7019163 C37.5353302,15.6243349 37.4957023,15.5328 37.4957023,15.4239628 L37.4957023,14.2384744 L41.2436093,14.2384744 L41.2436093,18.7945674 C40.9561674,19.0038698 40.6592372,19.1824744 40.3517023,19.3370791 C40.042493,19.488893 39.7131907,19.6183814 39.3621209,19.7143814 C39.0110512,19.812614 38.6337488,19.8879628 38.2369116,19.9365209 C37.8384,19.9856372 37.4064,20.0096372 36.9420279,20.0096372 C36.1221209,20.0096372 35.3680744,19.8678698 34.6770977,19.5826605 C33.9855628,19.2957767 33.3883535,18.9000558 32.8826791,18.3888 C32.3809116,17.8831256 31.9885395,17.2736372 31.7050047,16.5681488 C31.4214698,15.8643349 31.2813767,15.0913116 31.2813767,14.2552186 C31.2813767,13.4079628 31.4197953,12.6299163 31.6944,11.9255442 C31.9690047,11.2178233 32.3591442,10.6105674 32.8670512,10.1026605 C33.3710512,9.59363721 33.9855628,9.19903256 34.7072372,8.91884651 C35.4289116,8.63754419 36.2410047,8.4980093 37.1362605,8.4980093 C38.0560744,8.4980093 38.8519814,8.63531163 39.5256558,8.90824186 C40.198214,9.18061395 40.7664,9.53503256 41.2341209,9.97093953 L40.6268651,10.9203349 C40.5090977,11.1123349 40.3517023,11.2083349 40.1513302,11.2083349 C40.0251907,11.2083349 39.9007256,11.1681488 39.7717953,11.0838698 C39.6043535,10.9845209 39.4341209,10.8879628 39.2616558,10.7897302 C39.0875163,10.6892651 38.8955163,10.6044279 38.6817488,10.5313116 C38.4746791,10.4581953 38.2369116,10.3984744 37.9757023,10.3515907 C37.7139349,10.304707 37.4119814,10.2840558 37.066493,10.2840558 C36.510586,10.2840558 36.0088186,10.3755907 35.5589581,10.5631256 C35.1107721,10.7484279 34.7290047,11.0152186 34.4130977,11.3651721 C34.0949581,11.712893 33.850493,12.1292651 33.6780279,12.6176372 C33.5083535,13.1060093 33.4229581,13.6513116 33.4229581,14.2552186 C33.4229581,14.9037767 33.5150512,15.4825674 33.6958884,15.9904744 C33.8767256,16.4922419 34.1317953,16.9225674 34.4588651,17.2691721 C34.7881674,17.616893 35.1760744,17.8831256 35.626493,18.0673116 C36.078586,18.2514977 36.5736558,18.3430326 37.1077953,18.3430326 Z" id="Fill-1" fill="#FFFFFF"></path>
                <path d="M42.9769674,19.8855628 L42.9769674,11.8952372 L44.1060837,11.8952372 C44.3025488,11.8952372 44.4398512,11.9309581 44.5185488,12.0040744 C44.5966884,12.0760744 44.6491535,12.2010977 44.675386,12.3769116 L44.7909209,13.3447256 C45.0766884,12.8507721 45.4121302,12.4595163 45.7938977,12.174307 C46.1795721,11.8885395 46.6115721,11.7456558 47.0887814,11.7456558 C47.483386,11.7456558 47.8093395,11.8371907 48.0722233,12.0180279 L47.8205023,13.4602605 C47.8037581,13.5540279 47.771386,13.618214 47.7211535,13.6589581 C47.6664558,13.6980279 47.5989209,13.7153302 47.5096186,13.7153302 C47.4309209,13.7153302 47.3243163,13.6991442 47.1914791,13.6634233 C47.0541767,13.6249116 46.8761302,13.6087256 46.6528744,13.6087256 C46.2538047,13.6087256 45.9116651,13.7186791 45.6247814,13.9380279 C45.3378977,14.1590512 45.0984558,14.4827721 44.8997581,14.9091907 L44.8997581,19.8855628 L42.9769674,19.8855628 Z" id="Fill-3" fill="#FFFFFF"></path>
                <mask id="mask-2" fill="white">
                    <use xlink:href="#path-1"></use>
                </mask>
                <g id="Clip-6"></g>
                <path d="M49.0989767,19.885786 L51.024,19.885786 L51.024,11.8954605 L49.0989767,11.8954605 L49.0989767,19.885786 Z M51.3097674,9.56522791 C51.3097674,9.73211163 51.2779535,9.88783256 51.2104186,10.0340651 C51.1428837,10.1780651 51.0546977,10.3047628 50.9436279,10.4158326 C50.8303256,10.5235535 50.6980465,10.6106233 50.5501395,10.6764837 C50.3983256,10.7406698 50.2370233,10.7730419 50.0651163,10.7730419 C49.8993488,10.7730419 49.7430698,10.7406698 49.5951628,10.6764837 C49.4466977,10.6106233 49.3172093,10.5235535 49.2089302,10.4158326 C49.0989767,10.3047628 49.0152558,10.1780651 48.9488372,10.0340651 C48.8829767,9.88783256 48.8506047,9.73211163 48.8506047,9.56522791 C48.8506047,9.39332093 48.8829767,9.23313488 48.9488372,9.08578605 C49.0152558,8.93229767 49.0989767,8.80225116 49.2089302,8.69229767 C49.3172093,8.58346047 49.4466977,8.49583256 49.5951628,8.43053023 C49.7430698,8.36522791 49.8993488,8.33564651 50.0651163,8.33564651 C50.2370233,8.33564651 50.3983256,8.36522791 50.5501395,8.43053023 C50.6980465,8.49583256 50.8303256,8.58346047 50.9436279,8.69229767 C51.0546977,8.80225116 51.1428837,8.93229767 51.2104186,9.08578605 C51.2779535,9.23313488 51.3097674,9.39332093 51.3097674,9.56522791 L51.3097674,9.56522791 Z" id="Fill-5" fill="#FFFFFF" mask="url(#mask-2)"></path>
                <path d="M56.0016558,18.4760372 C56.4007256,18.4760372 56.7406326,18.3945488 57.0197023,18.2265488 C57.3010047,18.0618977 57.5650047,17.8263628 57.8156093,17.5165953 L57.8156093,13.9355721 C57.5973767,13.671014 57.3601674,13.4823628 57.1017488,13.3740837 C56.8455628,13.2641302 56.5676093,13.2105488 56.2695628,13.2105488 C55.9798884,13.2105488 55.7181209,13.2641302 55.482586,13.3740837 C55.2453767,13.4823628 55.0466791,13.647014 54.8809116,13.8680372 C54.7173767,14.0918512 54.5934698,14.3698047 54.5036093,14.7108279 C54.4176558,15.0507349 54.3707721,15.4509209 54.3707721,15.9141767 C54.3707721,16.3818977 54.4098419,16.7765023 54.4840744,17.1002233 C54.5605395,17.4284093 54.6682605,17.6901767 54.8066791,17.895014 C54.946214,18.1009674 55.1186791,18.2494326 55.3212837,18.3398512 C55.5244465,18.4291535 55.7510512,18.4760372 56.0016558,18.4760372 L56.0016558,18.4760372 Z M58.5635163,19.8853395 C58.3129116,19.8853395 58.1516093,19.7709209 58.0729116,19.5342698 L57.9138419,18.7640372 C57.7480744,18.9493395 57.5756093,19.1212465 57.3925395,19.2708279 C57.2117023,19.4198512 57.0152372,19.5498977 56.8081674,19.6587349 C56.5966326,19.7709209 56.3677953,19.8529674 56.1283535,19.9149209 C55.8883535,19.9729674 55.626586,20.0008744 55.3452837,20.0008744 C54.9093767,20.0008744 54.5091907,19.9126884 54.1452837,19.7318512 C53.7819349,19.5498977 53.4682605,19.2836651 53.206493,18.9404093 C52.9447256,18.5938047 52.7421209,18.1685023 52.6003535,17.6572465 C52.4563535,17.1493395 52.3849116,16.5683163 52.3849116,15.9141767 C52.3849116,15.3214326 52.4652837,14.7716651 52.626586,14.2648744 C52.7878884,13.7547349 53.0178419,13.3121302 53.3197953,12.9404093 C53.6184,12.5642233 53.9828651,12.2712 54.4014698,12.0607814 C54.822307,11.8537116 55.2939349,11.7454326 55.8208186,11.7454326 C56.2678884,11.7454326 56.6490977,11.8185488 56.9633302,11.9592 C57.2814698,12.1043163 57.5650047,12.2940837 57.8156093,12.5329674 L57.8156093,8.31175814 L59.7361674,8.31175814 L59.7361674,19.8853395 L58.5635163,19.8853395 Z" id="Fill-7" fill="#FFFFFF" mask="url(#mask-2)"></path>
                <path d="M73.5830512,14.2529302 C73.5830512,13.6350698 73.5004465,13.0797209 73.3324465,12.5891163 C73.1689116,12.100186 72.9311442,11.6843721 72.6236093,11.3433488 C72.318307,11.0034419 71.946586,10.7416744 71.5073302,10.5630698 C71.0669581,10.3811163 70.5741209,10.2890233 70.0226791,10.2890233 L67.8336558,10.2890233 L67.8336558,18.2179535 L70.0226791,18.2179535 C70.5741209,18.2179535 71.0669581,18.1269767 71.5073302,17.9461395 C71.946586,17.7630698 72.318307,17.5013023 72.6236093,17.1613953 C72.9311442,16.8242791 73.1689116,16.4056744 73.3324465,15.9156279 C73.5004465,15.4255814 73.5830512,14.8707907 73.5830512,14.2529302 M75.7229581,14.2529302 C75.7229581,15.0789767 75.5845395,15.8369302 75.3121674,16.527907 C75.0370047,17.2177674 74.6490977,17.8144186 74.1529116,18.3111628 C73.6539349,18.811814 73.0533767,19.1974884 72.3512372,19.472093 C71.6490977,19.7472558 70.8732837,19.8856744 70.0226791,19.8856744 L65.7244465,19.8856744 L65.7244465,8.62353488 L70.0226791,8.62353488 C70.8732837,8.62353488 71.6490977,8.76195349 72.3512372,9.0387907 C73.0533767,9.31786047 73.6539349,9.70409302 74.1529116,10.1997209 C74.6490977,10.695907 75.0370047,11.2897674 75.3121674,11.9779535 C75.5845395,12.6700465 75.7229581,13.4274419 75.7229581,14.2529302" id="Fill-8" fill="#FFFFFF" mask="url(#mask-2)"></path>
                <path d="M80.0169488,22.0810605 C79.9600186,22.2172465 79.8841116,22.3188279 79.7925767,22.3897116 C79.7038326,22.4583628 79.5637395,22.4963163 79.3778791,22.4963163 L77.9434605,22.4963163 L79.4392744,19.2914791 L76.2082047,11.8938977 L77.8887628,11.8938977 C78.0461581,11.8938977 78.1639256,11.9290605 78.2465302,12.0016186 C78.3313674,12.0758512 78.3927628,12.1578977 78.4340651,12.2527814 L80.141414,16.3947349 C80.197786,16.5314791 80.245786,16.6721302 80.2893209,16.8144558 C80.3300651,16.9618047 80.3680186,17.1069209 80.3964837,17.2542698 C80.4400186,17.1002233 80.4835535,16.9562233 80.5349023,16.8144558 C80.5840186,16.6760372 80.633693,16.5325953 80.6939721,16.3874791 L82.2986233,12.2527814 C82.3388093,12.1478512 82.4085767,12.0641302 82.5068093,11.9932465 C82.6005767,11.9279442 82.709414,11.8938977 82.8271814,11.8938977 L84.3709953,11.8938977 L80.0169488,22.0810605 Z" id="Fill-9" fill="#FFFFFF" mask="url(#mask-2)"></path>
                <path d="M85.2690977,19.8855628 L85.2690977,11.8941209 L86.4439814,11.8941209 C86.6951442,11.8941209 86.8609116,12.0096558 86.934586,12.2429581 L87.070214,12.8747721 C87.2292837,12.7106791 87.3989581,12.5566326 87.5781209,12.4249116 C87.7578419,12.2876093 87.946493,12.1731907 88.1468651,12.0716093 C88.3477953,11.974493 88.5593302,11.8991442 88.7881674,11.8483535 C89.0170047,11.7936558 89.2676093,11.7696558 89.5377488,11.7696558 C89.974214,11.7696558 90.3598884,11.8427721 90.6981209,11.9906791 C91.0357953,12.1391442 91.3170977,12.346214 91.5437023,12.6135628 C91.7686326,12.8837023 91.9405395,13.2018419 92.0571907,13.5735628 C92.1738419,13.9436093 92.2330047,14.3521674 92.2330047,14.8003535 L92.2330047,19.8855628 L90.3096558,19.8855628 L90.3096558,14.8003535 C90.3096558,14.3108651 90.1963535,13.9324465 89.9697488,13.6650977 C89.7453767,13.398307 89.4049116,13.2643535 88.9539349,13.2643535 C88.6212837,13.2643535 88.3081674,13.3402605 88.0196093,13.4887256 C87.7282605,13.6410977 87.4536558,13.846493 87.1918884,14.1060279 L87.1918884,19.8855628 L85.2690977,19.8855628 Z" id="Fill-10" fill="#FFFFFF" mask="url(#mask-2)"></path>
                <path d="M96.3381767,18.6853395 C96.5346419,18.6853395 96.7177116,18.6691535 96.8834791,18.6328744 C97.0486884,18.5960372 97.2060837,18.5424558 97.3539907,18.4693395 C97.5024558,18.3995721 97.6464558,18.3102698 97.7837581,18.207014 C97.9210605,18.1009674 98.0605953,17.9787349 98.1978977,17.8341767 L98.1978977,16.4974326 C97.6375256,16.4974326 97.1709209,16.5314791 96.7936186,16.6034791 C96.419107,16.6732465 96.1160372,16.7625488 95.8866419,16.8747349 C95.6578047,16.9835721 95.4965023,17.111386 95.4005023,17.2581767 C95.3045023,17.4044093 95.2570605,17.5634791 95.2570605,17.7348279 C95.2570605,18.0758512 95.3558512,18.3203163 95.5556651,18.467107 C95.7549209,18.6122233 96.0166884,18.6853395 96.3381767,18.6853395 L96.3381767,18.6853395 Z M100.079386,19.8853395 L99.2125953,19.8853395 C99.0284093,19.8853395 98.8888744,19.8585488 98.7845023,19.8038512 C98.6795721,19.7480372 98.6036651,19.6380837 98.5489674,19.4723163 L98.3787349,18.9035721 C98.1761302,19.0855256 97.9796651,19.2468279 97.7837581,19.3818977 C97.5895256,19.5214326 97.3869209,19.6347349 97.1798512,19.7318512 C96.9716651,19.823386 96.7500837,19.8920372 96.519014,19.9389209 C96.2834791,19.9858047 96.0245023,20.0098047 95.7387349,20.0098047 C95.4005023,20.0098047 95.0890605,19.9640372 94.8055256,19.8725023 C94.5197581,19.7798512 94.271386,19.6458977 94.0665488,19.4628279 C93.863386,19.2792 93.7020837,19.0537116 93.5887814,18.7824558 C93.4732465,18.5117581 93.4168744,18.1969674 93.4168744,17.8364093 C93.4168744,17.5361302 93.4972465,17.2364093 93.6540837,16.9400372 C93.815386,16.6481302 94.0749209,16.3818977 94.4466419,16.1441302 C94.8161302,15.9074791 95.3045023,15.7115721 95.9195721,15.5558512 C96.5324093,15.3995721 97.2898047,15.3203163 98.1978977,15.3203163 L98.1978977,14.8503628 C98.1978977,14.3106419 98.0845953,13.9126884 97.8618977,13.6531535 C97.635293,13.3930605 97.3059907,13.2641302 96.8745488,13.2641302 C96.5647814,13.2641302 96.3052465,13.3015256 96.0981767,13.3740837 C95.8888744,13.4472 95.7091535,13.5281302 95.5556651,13.6185488 C95.4005023,13.7100837 95.2609674,13.7904558 95.1325953,13.8646884 C95.0014326,13.9366884 94.8568744,13.9757581 94.7028279,13.9757581 C94.571107,13.9757581 94.4611535,13.9378047 94.3696186,13.8725023 C94.2736186,13.8060837 94.199386,13.7218047 94.1424558,13.623014 L93.7919442,13.0079442 C94.7117581,12.1662698 95.819107,11.7454326 97.1167814,11.7454326 C97.5828279,11.7454326 98.0014326,11.8218977 98.3681302,11.9759442 C98.7365023,12.1283163 99.0462698,12.3409674 99.2968744,12.6133395 C99.5519442,12.8890605 99.7439442,13.2105488 99.879014,13.5934326 C100.011851,13.9707349 100.079386,14.3859907 100.079386,14.8392 L100.079386,19.8853395 Z" id="Fill-11" fill="#FFFFFF" mask="url(#mask-2)"></path>
                <path d="M101.762567,19.8855628 L101.762567,11.8941209 L102.935777,11.8941209 C103.186381,11.8941209 103.347684,12.0096558 103.425823,12.2429581 L103.552521,12.8379349 C103.689823,12.6788651 103.838288,12.538214 103.992893,12.4076093 C104.145823,12.2775628 104.308242,12.166493 104.481265,12.0716093 C104.655963,11.9778419 104.841265,11.9047256 105.041637,11.850586 C105.244242,11.7970047 105.462474,11.7696558 105.700242,11.7696558 C106.203684,11.7696558 106.620056,11.9047256 106.944893,12.1759814 C107.26973,12.4489116 107.511963,12.8139349 107.671033,13.2643535 C107.79773,12.9992372 107.952335,12.7715163 108.140986,12.5839814 C108.327405,12.3919814 108.532242,12.238493 108.754381,12.1196093 C108.979312,11.9996093 109.214847,11.9125395 109.467684,11.8556093 C109.718288,11.7981209 109.971126,11.7696558 110.226195,11.7696558 C110.667684,11.7696558 111.061172,11.8371907 111.401637,11.9722605 C111.743777,12.1056558 112.032335,12.3049116 112.266753,12.5644465 C112.502288,12.8228651 112.679219,13.1410047 112.800893,13.5138419 C112.923126,13.8877953 112.982288,14.3158884 112.982288,14.8003535 L112.982288,19.8855628 L111.061172,19.8855628 L111.061172,14.8003535 C111.061172,14.2890977 110.94787,13.906214 110.724614,13.6489116 C110.5008,13.3916093 110.17373,13.2643535 109.742288,13.2643535 C109.545823,13.2643535 109.362753,13.2989581 109.194753,13.366493 C109.025079,13.4317953 108.876614,13.5311442 108.750474,13.6578419 C108.623777,13.7839814 108.523312,13.9441674 108.451312,14.1350512 C108.375405,14.3292837 108.342474,14.5491907 108.342474,14.8003535 L108.342474,19.8855628 L106.408521,19.8855628 L106.408521,14.8003535 C106.408521,14.2650977 106.301916,13.8738419 106.088149,13.630493 C105.869916,13.3854698 105.554009,13.2643535 105.133172,13.2643535 C104.856335,13.2643535 104.599033,13.3341209 104.3568,13.4714233 C104.116242,13.6087256 103.892428,13.7973767 103.682009,14.0351442 L103.682009,19.8855628 L101.762567,19.8855628 Z" id="Fill-12" fill="#FFFFFF" mask="url(#mask-2)"></path>
                <path d="M114.689302,19.885786 L116.614326,19.885786 L116.614326,11.8943442 L114.689302,11.8943442 L114.689302,19.885786 Z M116.901209,9.56299535 C116.901209,9.73211163 116.869395,9.88783256 116.80186,10.0307163 C116.734326,10.1780651 116.645023,10.3047628 116.533395,10.4124837 C116.420093,10.5235535 116.291721,10.6083907 116.141023,10.6731349 C115.988651,10.7384372 115.827349,10.7708093 115.657116,10.7708093 C115.490233,10.7708093 115.332279,10.7384372 115.186047,10.6731349 C115.040372,10.6083907 114.906977,10.5235535 114.800372,10.4124837 C114.689302,10.3047628 114.602791,10.1780651 114.538605,10.0307163 C114.473302,9.88783256 114.440372,9.73211163 114.440372,9.56299535 C114.440372,9.39332093 114.473302,9.2320186 114.538605,9.08132093 C114.602791,8.93229767 114.689302,8.80225116 114.800372,8.69229767 C114.906977,8.58346047 115.040372,8.49583256 115.186047,8.43053023 C115.332279,8.36522791 115.490233,8.33453023 115.657116,8.33453023 C115.827349,8.33453023 115.988651,8.36522791 116.141023,8.43053023 C116.291721,8.49583256 116.420093,8.58346047 116.533395,8.69229767 C116.645023,8.80225116 116.734326,8.93229767 116.80186,9.08132093 C116.869395,9.2320186 116.901209,9.39332093 116.901209,9.56299535 L116.901209,9.56299535 Z" id="Fill-13" fill="#FFFFFF" mask="url(#mask-2)"></path>
                <path d="M124.103442,13.582493 C124.046512,13.6578419 123.99014,13.714214 123.935442,13.7549581 C123.881302,13.7973767 123.800372,13.8169116 123.697674,13.8169116 C123.597767,13.8169116 123.504,13.7873302 123.410233,13.7276093 C123.318698,13.6673302 123.205395,13.6009116 123.074233,13.5255628 C122.94586,13.4496558 122.791814,13.3832372 122.614326,13.3229581 C122.433488,13.2621209 122.210791,13.2314233 121.945116,13.2314233 C121.606884,13.2314233 121.310512,13.294493 121.057674,13.4156093 C120.804837,13.5378419 120.59107,13.714214 120.42307,13.9413767 C120.253395,14.170214 120.12893,14.4481674 120.045767,14.7718884 C119.959814,15.0956093 119.919628,15.4650977 119.919628,15.8736558 C119.919628,16.2978419 119.965395,16.6818419 120.05693,17.0100279 C120.148465,17.3443535 120.277395,17.6234233 120.44707,17.8494698 C120.620651,18.0760744 120.83107,18.2457488 121.072744,18.3618419 C121.317209,18.4773767 121.591814,18.5370977 121.899349,18.5370977 C122.206884,18.5370977 122.451907,18.5002605 122.642791,18.4237953 C122.832558,18.3484465 122.991628,18.2658419 123.12,18.174307 C123.251163,18.0833302 123.364465,18.0018419 123.460465,17.9276093 C123.55814,17.8500279 123.66307,17.814307 123.785302,17.814307 C123.937674,17.814307 124.057674,17.8729116 124.135256,17.9917953 L124.687814,18.6928186 C124.474047,18.9434233 124.242977,19.1510512 123.994605,19.3196093 C123.743442,19.4887256 123.484465,19.6249116 123.218233,19.7231442 C122.950326,19.8275163 122.675163,19.9006326 122.389953,19.9391442 C122.104186,19.9815628 121.820651,20.0010977 121.539349,20.0010977 C121.046512,20.0010977 120.58214,19.9095628 120.146233,19.7231442 C119.708093,19.5411907 119.328558,19.2727256 119.003721,18.9199814 C118.681116,18.5655628 118.421581,18.1335628 118.234047,17.6234233 C118.044837,17.1110512 117.95107,16.5277953 117.95107,15.8736558 C117.95107,15.2853767 118.033674,14.7434233 118.203907,14.2433302 C118.371349,13.7393302 118.619163,13.3067721 118.945116,12.9406326 C119.274419,12.5761674 119.679628,12.2876093 120.16186,12.0816558 C120.645767,11.8723535 121.200558,11.7696558 121.829581,11.7696558 C122.424558,11.7696558 122.948093,11.8634233 123.39907,12.0565395 C123.848372,12.2490977 124.251907,12.5248186 124.609116,12.8837023 L124.103442,13.582493 Z" id="Fill-14" fill="#FFFFFF" mask="url(#mask-2)"></path>
                <path d="M130.721526,13.4494884 C130.66906,13.5332093 130.614921,13.5934884 130.557991,13.6269767 C130.499386,13.6621395 130.429619,13.6772093 130.339758,13.6772093 C130.245991,13.6772093 130.146084,13.6509767 130.038921,13.6007442 C129.932316,13.5488372 129.812316,13.4885581 129.668316,13.4243721 C129.528781,13.3590698 129.369712,13.3010233 129.191107,13.248 C129.01027,13.1977674 128.800967,13.1715349 128.556502,13.1715349 C128.176967,13.1715349 127.878363,13.251907 127.660688,13.4126512 C127.444688,13.5739535 127.333619,13.7832558 127.333619,14.0444651 C127.333619,14.2146977 127.385526,14.3586977 127.50106,14.4753488 C127.610456,14.5908837 127.760595,14.6946977 127.945898,14.7851163 C128.128967,14.8710698 128.33827,14.9547907 128.571572,15.0195349 C128.802642,15.0909767 129.042642,15.1674419 129.28934,15.2517209 C129.531014,15.3354419 129.771014,15.4269767 130.006549,15.5346977 C130.237619,15.6396279 130.444688,15.775814 130.632223,15.9393488 C130.815293,16.1028837 130.963758,16.2982326 131.074828,16.528186 C131.18813,16.7570233 131.244502,17.0316279 131.244502,17.3542326 C131.244502,17.7382326 131.170828,18.092093 131.031293,18.4180465 C130.893991,18.7423256 130.688595,19.0213953 130.416223,19.2586047 C130.146084,19.4941395 129.812316,19.6805581 129.415479,19.8117209 C129.018642,19.9423256 128.5632,20.0098605 128.050828,20.0098605 C127.776223,20.0098605 127.505526,19.9858605 127.244316,19.9333953 C126.980316,19.8853953 126.729712,19.8167442 126.487479,19.731907 C126.245247,19.6414884 126.020874,19.5376744 125.81827,19.4187907 C125.616781,19.2993488 125.435386,19.1693023 125.278549,19.0275349 L125.721153,18.2952558 C125.778084,18.2070698 125.844502,18.140093 125.922642,18.0932093 C126.00134,18.0452093 126.099572,18.0212093 126.219572,18.0212093 C126.33734,18.0212093 126.450642,18.0574884 126.555014,18.123907 C126.663851,18.1925581 126.788316,18.2656744 126.927851,18.3432558 C127.069619,18.4191628 127.233153,18.4933953 127.422921,18.5609302 C127.610456,18.6284651 127.849898,18.6625116 128.144595,18.6625116 C128.3712,18.6625116 128.565433,18.6351628 128.7312,18.5793488 C128.894735,18.5263256 129.029805,18.4532093 129.136409,18.363907 C129.243572,18.2773953 129.319479,18.1741395 129.369712,18.0574884 C129.419944,17.9408372 129.443944,17.8197209 129.443944,17.6963721 C129.443944,17.5093953 129.387014,17.3553488 129.275944,17.2364651 C129.164874,17.1164651 129.016409,17.0132093 128.83334,16.923907 C128.648037,16.8373953 128.436502,16.7581395 128.200967,16.6894884 C127.963758,16.6163721 127.723758,16.5410233 127.475386,16.4584186 C127.230921,16.3763721 126.987014,16.2764651 126.753712,16.1659535 C126.515944,16.0526512 126.304409,15.912 126.12134,15.7412093 C125.93827,15.5698605 125.790921,15.3594419 125.679851,15.1099535 C125.564316,14.859907 125.509619,14.5613023 125.509619,14.208 C125.509619,13.879814 125.574921,13.5683721 125.704967,13.272 C125.83334,12.976186 126.02534,12.7183256 126.278177,12.4967442 C126.528781,12.2768372 126.843014,12.099907 127.220316,11.9693023 C127.59706,11.8342326 128.031293,11.7694884 128.525805,11.7694884 C129.075572,11.7694884 129.574549,11.8587907 130.028316,12.0413023 C130.477619,12.2232558 130.854363,12.4632558 131.157433,12.7585116 L130.721526,13.4494884 Z" id="Fill-15" fill="#FFFFFF" mask="url(#mask-2)"></path>
                <path d="M23.6805767,12.1669953 L23.6805767,12.1669953 C22.417507,6.18541395 15.7421581,0.557134884 11.1637395,0.0386232558 L11.1637395,0.0391813953 C10.7920186,0.275274419 10.4828093,0.570530233 10.2333209,0.915460465 C12.9006698,1.16271628 15.2292279,2.94653023 17.9043907,5.81090233 C19.9823442,8.03787907 21.3721116,11.5943442 21.7131349,15.341693 C21.8504372,16.8246698 21.821414,18.3366698 21.6109953,19.8090419 C23.7553674,17.4598326 24.2331349,14.7796465 23.6805767,12.1669953" id="Fill-16" fill="#F29200" mask="url(#mask-2)"></path>
                <path d="M21.713414,15.3419721 C21.8507163,16.8243907 21.821693,18.3363907 21.6107163,19.8093209 C19.1738791,22.5564837 10.7638326,23.9155535 5.42522791,23.5270884 L5.42522791,23.5248558 C4.61871628,22.3773209 4.20792558,21.1103442 4.10355349,19.7830884 C10.8871814,21.0511814 18.1502512,19.0005767 21.713414,15.3419721" id="Fill-17" fill="#EA5B25" mask="url(#mask-2)"></path>
                <path d="M16.6220651,6.74584186 C18.1876465,9.23737674 17.873414,13.7281674 16.1303442,16.3190512 L15.9076465,16.2649116 C14.7394605,15.7681674 13.553414,14.6178419 12.5186233,13.1410047 C16.0131349,8.90193488 14.077507,5.68202791 11.6317395,5.02230698 C10.901693,4.82305116 10.1269953,4.8531907 9.43657674,5.15346977 C11.7846698,4.03495814 14.8918326,4.18063256 16.6220651,6.74584186" id="Fill-18" fill="#0069B3" mask="url(#mask-2)"></path>
                <path d="M9.4368,5.15369302 C10.1266605,4.85341395 10.9013581,4.82271628 11.6319628,5.02253023 C11.0180093,5.59741395 10.3750326,6.25992558 9.73652093,6.98997209 C9.58414884,6.36987907 9.47642791,5.7576 9.4155907,5.16373953 L9.4155907,5.16206512 C9.42452093,5.15871628 9.42898605,5.15536744 9.4368,5.15369302" id="Fill-19" fill="#AAAA00" mask="url(#mask-2)"></path>
                <path d="M15.9077581,16.2647442 C14.7395721,15.768 13.5535256,14.6176744 12.5187349,13.1408372 C11.2802233,11.3765581 10.2560372,9.14009302 9.7364093,6.99013953 C9.58403721,6.36948837 9.47631628,5.75776744 9.41603721,5.16334884 L9.41603721,5.16167442 C9.24413023,3.48390698 9.46571163,1.968 10.2331535,0.915348837 C10.4832,0.570418605 10.7918512,0.275162791 11.1635721,0.039627907 L11.1635721,0.0385116279 C9.77938605,-0.117209302 8.58552558,0.192 7.79408372,1.10344186 L7.79017674,1.10344186 C7.1896186,1.79274419 6.81566512,2.82474419 6.76375814,4.25860465 C6.66664186,4.99255814 6.59408372,6.03906977 6.58068837,7.23627907 C6.56952558,8.40613953 6.61975814,9.71609302 6.76487442,11.0266047 C7.31631628,15.9906977 9.2536186,20.9196279 14.5732465,17.8448372 C15.1754791,17.4948837 15.6978977,16.9646512 16.1304558,16.3194419 L15.9077581,16.2647442 Z" id="Fill-20" fill="#62B8E8" mask="url(#mask-2)"></path>
                <path d="M4.10372093,19.7830884 C3.88102326,16.9371349 5.06706977,13.8154605 6.76493023,11.0269953 C6.61981395,9.71592558 6.5695814,8.40597209 6.58074419,7.23666977 C3.79172093,9.82420465 0.441209302,14.8245767 0.0399069767,18.5959256 C-0.169395349,20.561693 0.423348837,22.1914605 2.31990698,22.9706233 C3.11302326,23.2536 4.18632558,23.4366698 5.42539535,23.5270884 L5.42539535,23.5248558 C4.61832558,22.3773209 4.20753488,21.1103442 4.10372093,19.7830884" id="Fill-21" fill="#AAAA00" mask="url(#mask-2)"></path>
            </g>
        </g>
    </g>
</svg>